<?xml version="1.0" standalone="no"?>
<!DOCTYPE svg PUBLIC "-//W3C//DTD SVG 20010904//EN"
 "http://www.w3.org/TR/2001/REC-SVG-20010904/DTD/svg10.dtd">
<svg version="1.0" xmlns="http://www.w3.org/2000/svg"
 width="1024.000000pt" height="1024.000000pt" viewBox="0 0 1024.000000 1024.000000"
 preserveAspectRatio="xMidYMid meet">

<g transform="translate(0.000000,1024.000000) scale(0.100000,-0.100000)"
fill="#000000" stroke="none">
<path d="M0 5120 l0 -5120 5120 0 5120 0 0 5120 0 5120 -5120 0 -5120 0 0
-5120z m5458 3150 c35 -8 58 -19 68 -35 16 -24 44 -200 65 -406 l13 -127 127
-30 c273 -66 493 -172 806 -388 51 -35 97 -64 103 -64 5 0 95 61 199 136 212
150 237 161 296 124 20 -13 107 -102 193 -199 249 -280 272 -311 272 -369 0
-43 -72 -149 -225 -332 -39 -47 -74 -90 -78 -97 -4 -6 29 -85 73 -175 90 -183
146 -322 179 -448 13 -47 24 -90 26 -96 2 -6 43 -16 92 -23 131 -18 365 -71
391 -88 13 -8 30 -30 38 -49 33 -78 40 -686 9 -759 -21 -52 -53 -65 -213 -92
-81 -13 -180 -29 -221 -36 l-74 -13 -23 -115 c-39 -195 -102 -350 -221 -541
l-55 -89 55 -72 c30 -40 94 -124 142 -187 48 -63 96 -134 107 -157 19 -42 19
-44 0 -85 -23 -50 -130 -181 -297 -362 -176 -191 -210 -210 -296 -165 -30 15
-167 99 -186 113 -1 1 7 32 18 70 25 93 49 258 49 342 0 164 -51 356 -142 538
-27 54 -48 99 -46 100 2 1 35 9 73 19 201 50 412 215 564 440 40 59 115 210
148 296 138 366 86 747 -136 992 -175 194 -400 237 -689 133 -40 -15 -74 -25
-76 -23 -2 2 1 42 6 89 18 170 -12 402 -76 571 -53 141 -111 233 -211 335 -74
74 -105 98 -175 132 -134 66 -254 79 -390 41 -101 -28 -178 -70 -257 -143
-154 -141 -270 -348 -351 -626 -18 -61 -19 -63 -26 -35 -66 274 -187 507 -338
651 -133 126 -251 177 -413 177 -65 1 -118 -5 -153 -16 -266 -82 -467 -341
-543 -697 -18 -84 -23 -138 -23 -270 0 -91 3 -177 7 -192 l7 -27 -66 30 c-91
42 -206 69 -289 69 -263 0 -491 -198 -580 -506 -24 -82 -47 -269 -40 -317 2
-12 6 -56 9 -98 10 -124 56 -269 132 -421 146 -293 408 -527 659 -589 28 -6
51 -13 53 -14 2 -1 -13 -29 -31 -61 -115 -197 -166 -409 -153 -639 l6 -122
-32 -10 c-18 -6 -98 -36 -178 -67 -80 -31 -159 -56 -177 -56 -19 0 -43 10 -61
25 -25 21 -279 373 -389 540 -60 91 -47 120 157 329 l157 161 -13 30 c-25 57
-93 271 -123 390 -35 135 -68 337 -77 466 l-6 87 -191 91 c-106 50 -207 102
-224 116 -29 23 -33 32 -33 74 0 83 128 676 155 717 32 49 46 52 302 60 l243
7 46 86 c61 112 201 352 271 464 l55 88 -41 57 c-101 141 -181 269 -187 299
-9 48 1 75 50 135 47 57 418 410 475 453 43 31 94 33 141 4 57 -35 173 -133
270 -229 l92 -90 86 38 c154 69 303 119 454 152 57 13 57 13 63 54 3 23 17
133 31 246 15 113 30 215 35 227 13 35 49 51 134 62 106 13 555 6 623 -9z
m-983 -1415 c186 -91 351 -362 412 -675 23 -124 21 -332 -6 -433 -64 -242
-229 -387 -441 -387 -97 0 -162 19 -240 72 -236 157 -377 575 -315 929 35 204
119 365 236 454 107 81 239 97 354 40z m1572 -6 c107 -51 212 -187 262 -336
110 -328 26 -771 -189 -997 -257 -270 -625 -175 -753 194 -75 215 -34 555 97
813 57 111 100 170 176 240 131 122 272 152 407 86z m-2643 -1089 c171 -53
363 -242 475 -467 64 -128 83 -202 89 -340 13 -331 -133 -554 -375 -570 -146
-10 -257 38 -383 166 -129 130 -221 310 -262 510 -29 141 -22 346 15 450 46
129 126 223 220 258 50 18 148 15 221 -7z m3671 -14 c100 -47 191 -176 220
-313 39 -185 0 -434 -100 -635 -143 -286 -321 -419 -545 -406 -239 14 -383
210 -384 523 0 186 45 329 158 499 53 79 156 189 226 242 44 33 143 83 195
100 68 22 173 17 230 -10z m-1783 -553 c97 -34 168 -84 283 -198 83 -82 140
-152 225 -275 168 -241 252 -342 475 -570 110 -113 217 -230 237 -261 137
-209 169 -461 89 -697 -96 -278 -336 -463 -621 -479 -121 -7 -217 12 -382 73
-198 74 -273 88 -483 88 -206 0 -273 -12 -495 -91 -274 -98 -434 -97 -640 4
-78 38 -109 61 -175 127 -68 68 -89 98 -133 186 -68 138 -86 214 -86 365 0
139 16 209 74 330 54 114 114 186 313 382 199 196 282 295 455 544 132 189
221 288 334 372 92 68 123 84 211 108 91 24 234 21 319 -8z"/>
</g>
</svg>
